<svg xmlns="http://www.w3.org/2000/svg" xmlns:xlink="http://www.w3.org/1999/xlink" id="Layer_1" width="24" height="24" x="0" y="0" enable-background="new 0 0 150 150" version="1.1" viewBox="0 0 150 150" xml:space="preserve"><g><ellipse cx="75.614" cy="51.809" fill="#27AAE1" opacity="0" rx="4.607" ry="13.976"><animate attributeName="opacity" begin=".9" dur="1s" repeatCount="indefinite" values="0;1;0"/></ellipse><ellipse cx="61.866" cy="55.877" fill="#27AAE1" opacity="0" rx="4.607" ry="13.976" transform="matrix(0.809 -0.5878 0.5878 0.809 -21.0285 47.0354)"><animate attributeName="opacity" begin=".8" dur="1s" repeatCount="indefinite" values="0;1;0"/></ellipse><ellipse cx="53.134" cy="67.249" fill="#27AAE1" opacity="0" rx="4.607" ry="13.976" transform="matrix(0.309 -0.9511 0.9511 0.309 -27.2432 97.0017)"><animate attributeName="opacity" begin=".7" dur="1s" repeatCount="indefinite" values="0;1;0"/></ellipse><ellipse cx="52.754" cy="81.582" fill="#27AAE1" opacity="0" rx="4.607" ry="13.976" transform="matrix(-0.309 -0.9511 0.9511 -0.309 -8.5327 156.9648)"><animate attributeName="opacity" begin=".6" dur="1s" repeatCount="indefinite" values="0;1;0"/></ellipse><ellipse cx="60.872" cy="93.401" fill="#27AAE1" opacity="0" rx="4.607" ry="13.976" transform="matrix(-0.809 -0.5878 0.5878 -0.809 55.2186 204.7429)"><animate attributeName="opacity" begin=".5" dur="1s" repeatCount="indefinite" values="0;1;0"/></ellipse><ellipse cx="74.386" cy="98.191" fill="#27AAE1" opacity=".4" rx="4.607" ry="13.976"><animate attributeName="opacity" begin=".4" dur="1s" repeatCount="indefinite" values="0;1;0"/></ellipse><ellipse cx="88.134" cy="94.123" fill="#27AAE1" opacity="0" rx="4.607" ry="13.976" transform="matrix(-0.809 0.5878 -0.5878 -0.809 214.7603 118.4658)"><animate attributeName="opacity" begin=".3" dur="1s" repeatCount="indefinite" values="0;1;0"/></ellipse><ellipse cx="96.866" cy="82.751" fill="#27AAE1" opacity="0" rx="4.607" ry="13.976" transform="matrix(-0.309 0.9511 -0.9511 -0.309 205.4996 16.197)"><animate attributeName="opacity" begin=".2" dur="1s" repeatCount="indefinite" values="0;1;0"/></ellipse><ellipse cx="97.246" cy="68.418" fill="#27AAE1" opacity="0" rx="4.607" ry="13.976" transform="matrix(0.309 0.9511 -0.9511 0.309 132.2643 -45.2104)"><animate attributeName="opacity" begin=".1" dur="1s" repeatCount="indefinite" values="0;1;0"/></ellipse><ellipse cx="89.128" cy="56.599" fill="#27AAE1" opacity="0" rx="4.607" ry="13.976" transform="matrix(0.809 0.5878 -0.5878 0.809 50.2902 -41.5787)"><animate attributeName="opacity" begin="0" dur="1s" repeatCount="indefinite" values="0;1;0"/></ellipse></g></svg>